<svg xmlns="http://www.w3.org/2000/svg" width="700" height="404" class="highcharts-root" style="0:{;1:&quot;;2:f;3:o;4:n;5:t;6:F;7:a;8:m;9:i;10:l;11:y;12:&quot;;13::;14:&quot;;15:\;16:&quot;;17:L;18:u;19:c;20:i;21:d;22:a;23:;24:G;25:r;26:a;27:n;28:d;29:e;30:\;31:&quot;;32:,;33:;34:\;35:&quot;;36:L;37:u;38:c;39:i;40:d;41:a;42:;43:S;44:a;45:n;46:s;47:;48:U;49:n;50:i;51:c;52:o;53:d;54:e;55:\;56:&quot;;57:,;58:;59:V;60:e;61:r;62:d;63:a;64:n;65:a;66:,;67:;68:A;69:r;70:i;71:a;72:l;73:,;74:;75:H;76:e;77:l;78:v;79:e;80:t;81:i;82:c;83:a;84:,;85:;86:s;87:a;88:n;89:s;90:-;91:s;92:e;93:r;94:i;95:f;96:&quot;;97:,;98:&quot;;99:f;100:o;101:n;102:t;103:S;104:i;105:z;106:e;107:&quot;;108::;109:&quot;;110:1;111:2;112:p;113:x;114:&quot;;115:}" font-family="&quot;Lucida Grande&quot;, &quot;Lucida Sans Unicode&quot;, Arial, Helvetica, sans-serif" font-size="12"><desc>Created with Highstock 6.0.7</desc><defs><clipPath><path fill="none" d="M0 0h187v623H0z"/></clipPath><clipPath id="a"><path fill="none" d="M0 0h187v623H0z"/></clipPath></defs><rect width="700" height="404" fill="#F2F2F2" class="highcharts-background" rx="0" ry="0"/><path fill="none" d="M67 120h623v187H67z" class="highcharts-plot-background"/><g fill="none" class="highcharts-grid highcharts-xaxis-grid"><path d="M67 307.5h623M67 120.5h623" class="highcharts-grid-line"/></g><g fill="none" stroke="#e6e6e6" class="highcharts-grid highcharts-yaxis-grid"><path d="M66.5 120v187M144.5 120v187M222.5 120v187M300.5 120v187M378.5 120v187M455.5 120v187M533.5 120v187M611.5 120v187M690.5 120v187" class="highcharts-grid-line"/></g><path fill="none" d="M67 120h623v187H67z" class="highcharts-plot-border"/><g fill="none" stroke="#ccd6eb" class="highcharts-axis highcharts-xaxis"><path d="M67 307.5H57M67 119.5H57" class="highcharts-tick"/><path d="M66.5 120v187" class="highcharts-axis-line"/></g><g class="highcharts-axis highcharts-yaxis"><text x="348.5" y="345" fill="#666" text-anchor="middle" class="highcharts-axis-title" color="#666"><tspan>Frames per Second (Higher is Better)</tspan></text><path fill="none" d="M67 307h623" class="highcharts-axis-line"/></g><g class="highcharts-series-group"><g class="highcharts-series highcharts-series-0 highcharts-column-series highcharts-color-0" clip-path="url(#a)" transform="matrix(0 -1 -1 0 690 307)"><path fill="#D14648" stroke="#fff" d="M115.5 63.5h30v560h-30z" class="highcharts-point highcharts-color-0"/></g><g class="highcharts-series highcharts-series-1 highcharts-column-series highcharts-color-1" clip-path="url(#a)" transform="matrix(0 -1 -1 0 690 307)"><path fill="#323232" stroke="#fff" d="M78.5 406.5h30v217h-30z" class="highcharts-point highcharts-color-1"/></g><g class="highcharts-series highcharts-series-2 highcharts-column-series highcharts-color-2" clip-path="url(#a)" transform="matrix(0 -1 -1 0 690 307)"><path fill="#9e9e9e" stroke="#fff" d="M40.5 509.5h30v114h-30z" class="highcharts-point highcharts-color-2"/></g></g><text x="350" y="51" fill="#323232" text-anchor="middle" class="highcharts-title" color="#323232" font-size="25" font-family="&quot;Lucida Grande&quot;, &quot;Lucida Sans Unicode&quot;, Verdana, Arial, Helvetica, sans-serif" font-weight="bold"><tspan>Fortnite</tspan></text><text x="350" y="79" fill="#9e9e9e" text-anchor="middle" class="highcharts-subtitle" color="#9e9e9e" font-family="&quot;Lucida Grande&quot;, &quot;Lucida Sans Unicode&quot;, Verdana, Arial, Helvetica, sans-serif" font-size="18"><tspan>1280x800, Medium Setttings</tspan></text><text x="5" y="16" font-size="11" font-weight="bold" color="#000" transform="translate(67 120) translate(560 45)" class="highcharts-label highcharts-data-label highcharts-data-label-color-0"><tspan x="5" y="16" fill="#fff" stroke="#fff" stroke-width="2" class="highcharts-text-outline" stroke-linejoin="round">71.9</tspan><tspan x="5" y="16">71.9</tspan></text><text x="5" y="16" font-size="11" font-weight="bold" color="#000" transform="translate(67 120) translate(217 82)" class="highcharts-label highcharts-data-label highcharts-data-label-color-1"><tspan x="5" y="16" fill="#fff" stroke="#fff" stroke-width="2" class="highcharts-text-outline" stroke-linejoin="round">27.9</tspan><tspan x="5" y="16">27.9</tspan></text><text x="5" y="16" font-size="11" font-weight="bold" color="#000" transform="translate(67 120) translate(114 120)" class="highcharts-label highcharts-data-label highcharts-data-label-color-2"><tspan x="5" y="16" fill="#fff" stroke="#fff" stroke-width="2" class="highcharts-text-outline" stroke-linejoin="round">14.7</tspan><tspan x="5" y="16">14.7</tspan></text><g class="highcharts-legend" transform="translate(197 359)"><rect width="305" height="25" fill="none" class="highcharts-legend-box" rx="0" ry="0"/><g class="highcharts-legend-item highcharts-column-series highcharts-color-0 highcharts-series-0" transform="translate(8 3)"><text x="21" y="15" fill="#333" color="#333" font-size="12" font-weight="bold" cursor="pointer"><tspan>2014 iMac</tspan></text><rect width="12" height="12" x="2" y="4" fill="#D14648" rx="6" ry="6" class="highcharts-point"/></g><g class="highcharts-legend-item highcharts-column-series highcharts-color-1 highcharts-series-1" transform="translate(112.844 3)"><text x="21" y="15" fill="#333" color="#333" font-size="12" font-weight="bold" cursor="pointer"><tspan>2016 MBP</tspan></text><rect width="12" height="12" x="2" y="4" fill="#323232" rx="6" ry="6" class="highcharts-point"/></g><g class="highcharts-legend-item highcharts-column-series highcharts-color-2 highcharts-series-2" transform="translate(215.266 3)"><text x="21" y="15" fill="#333" color="#333" font-size="12" font-weight="bold" cursor="pointer"><tspan>2013 MBP</tspan></text><rect width="12" height="12" x="2" y="4" fill="#9e9e9e" rx="6" ry="6" class="highcharts-point"/></g></g><text x="52" y="218" fill="#666" text-anchor="end" color="#666" cursor="default" font-size="11" class="highcharts-axis-labels highcharts-xaxis-labels">Fortnite</text><g fill="#666" class="highcharts-axis-labels highcharts-yaxis-labels" text-anchor="middle" color="#666" cursor="default" font-size="11"><text x="67" y="326">0</text><text x="144.875" y="326">10</text><text x="222.75" y="326">20</text><text x="300.625" y="326">30</text><text x="378.5" y="326">40</text><text x="456.375" y="326">50</text><text x="534.25" y="326">60</text><text x="612.125" y="326">70</text><text x="683.047" y="326">80</text></g></svg>